HIERARCHY
ROOT Hips
{
	OFFSET 0.00000 0.00000 0.00000
	CHANNELS 6 Xposition Yposition Zposition Zrotation Yrotation Xrotation 
	JOINT LHipJoint
	{
		OFFSET 0 0 0
		CHANNELS 3 Zrotation Yrotation Xrotation
		JOINT LeftUpLeg
		{
			OFFSET 1.75344 -1.53157 0.77399
			CHANNELS 3 Zrotation Yrotation Xrotation
			JOINT LeftLeg
			{
				OFFSET 2.25415 -6.19323 0.00000
				CHANNELS 3 Zrotation Yrotation Xrotation
				JOINT LeftFoot
				{
					OFFSET 2.30342 -6.32861 0.00000
					CHANNELS 3 Zrotation Yrotation Xrotation
					JOINT LeftToeBase
					{
						OFFSET 0.10958 -0.30108 1.49206
						CHANNELS 3 Zrotation Yrotation Xrotation
						End Site
						{
							OFFSET 0.00000 -0.00000 0.77783
						}
					}
				}
			}
		}
	}
	JOINT RHipJoint
	{
		OFFSET 0 0 0
		CHANNELS 3 Zrotation Yrotation Xrotation
		JOINT RightUpLeg
		{
			OFFSET -1.81912 -1.53156 0.77399
			CHANNELS 3 Zrotation Yrotation Xrotation
			JOINT RightLeg
			{
				OFFSET -2.22882 -6.12365 0.00000
				CHANNELS 3 Zrotation Yrotation Xrotation
				JOINT RightFoot
				{
					OFFSET -2.21943 -6.09785 0.00000
					CHANNELS 3 Zrotation Yrotation Xrotation
					JOINT RightToeBase
					{
						OFFSET -0.18931 -0.52012 1.59379
						CHANNELS 3 Zrotation Yrotation Xrotation
						End Site
						{
							OFFSET -0.00000 -0.00000 0.84686
						}
					}
				}
			}
		}
	}
	JOINT LowerBack
	{
		OFFSET 0 0 0
		CHANNELS 3 Zrotation Yrotation Xrotation
		JOINT Spine
		{
			OFFSET -0.00200 1.66634 -0.14248
			CHANNELS 3 Zrotation Yrotation Xrotation
			JOINT Spine1
			{
				OFFSET -0.00875 1.64542 0.09514
				CHANNELS 3 Zrotation Yrotation Xrotation
				JOINT Neck
				{
					OFFSET 0 0 0
					CHANNELS 3 Zrotation Yrotation Xrotation
					JOINT Neck1
					{
						OFFSET 0.02257 1.59605 0.00839
						CHANNELS 3 Zrotation Yrotation Xrotation
						JOINT Head
						{
							OFFSET -0.10214 1.57530 -0.23335
							CHANNELS 3 Zrotation Yrotation Xrotation
							End Site
							{
								OFFSET -0.03588 1.60717 -0.08062
							}
						}
					}
				}
				JOINT LeftShoulder
				{
					OFFSET 0 0 0
					CHANNELS 3 Zrotation Yrotation Xrotation
					JOINT LeftArm
					{
						OFFSET 2.54983 1.10186 0.40078
						CHANNELS 3 Zrotation Yrotation Xrotation
						JOINT LeftForeArm
						{
							OFFSET 4.28840 -0.00000 0.00000
							CHANNELS 3 Zrotation Yrotation Xrotation
							JOINT LeftHand
							{
								OFFSET 3.06552 -0.00000 -0.00000
								CHANNELS 3 Zrotation Yrotation Xrotation
								JOINT LeftFingerBase
								{
									OFFSET 0 0 0
									CHANNELS 3 Zrotation Yrotation Xrotation
									JOINT LeftHandIndex1
									{
										OFFSET 0.75304 -0.00000 0.00000
										CHANNELS 3 Zrotation Yrotation Xrotation
										End Site
										{
											OFFSET 0.60712 -0.00000 0.00000
										}
									}
								}
								JOINT LThumb
								{
									OFFSET 0 0 0
									CHANNELS 3 Zrotation Yrotation Xrotation
									End Site
									{
										OFFSET 0.61639 -0.00000 0.61639
									}
								}
							}
						}
					}
				}
				JOINT RightShoulder
				{
					OFFSET 0 0 0
					CHANNELS 3 Zrotation Yrotation Xrotation
					JOINT RightArm
					{
						OFFSET -2.60909 1.35448 0.21802
						CHANNELS 3 Zrotation Yrotation Xrotation
						JOINT RightForeArm
						{
							OFFSET -4.52172 -0.00000 -0.00000
							CHANNELS 3 Zrotation Yrotation Xrotation
							JOINT RightHand
							{
								OFFSET -2.89140 -0.00000 0.00000
								CHANNELS 3 Zrotation Yrotation Xrotation
								JOINT RightFingerBase
								{
									OFFSET 0 0 0
									CHANNELS 3 Zrotation Yrotation Xrotation
									JOINT RightHandIndex1
									{
										OFFSET -0.68054 -0.00000 0.00000
										CHANNELS 3 Zrotation Yrotation Xrotation
										End Site
										{
											OFFSET -0.54867 -0.00000 0.00000
										}
									}
								}
								JOINT RThumb
								{
									OFFSET 0 0 0
									CHANNELS 3 Zrotation Yrotation Xrotation
									End Site
									{
										OFFSET -0.55705 -0.00000 0.55705
									}
								}
							}
						}
					}
				}
			}
		}
	}
}
MOTION
Frames: 7
Frame Time: .0083333
7.8788 15.2735 -36.8375 356.7450 -65.3808 4.9671 0.0000 0.0000 0.0000 -13.9886 -35.9009 -14.8992 2.6924 10.1795 29.5601 1.4508 -17.5139 -23.2204 6.1752 -14.5960 -45.6809 0.0000 0.0000 0.0000 29.9891 11.7849 5.4410 -1.3019 -7.2284 20.3939 -0.7858 -15.1362 -28.1982 -0.1142 2.1786 -5.9996 7.5407 8.9406 5.2634 -0.6780 12.5260 -3.8258 -5.8395 5.8915 -5.1939 8.6549 10.7587 -10.6679 -13.3862 13.0184 -7.5061 -4.7598 6.1616 0.9725 0.0000 0.0000 0.0000 -46.3352 38.1399 -2.5332 25.9180 -37.1276 -8.8381 -0.0000 -0.0000 1.7292 6.9326 -33.7833 -3.8679 -7.1250 0.0000 -0.0000 -14.0612 -3.1056 15.2592 0.0000 0.0000 0.0000 53.6785 34.7681 53.4789 -37.6729 46.6291 -16.7274 0.0000 0.0000 9.4340 -1.7922 -51.1315 1.3956 7.1250 -0.0000 -0.0000 -17.4891 12.5197 -166.0360
7.9129 15.2997 -36.8558 357.1820 -64.4167 4.7602 0.0000 0.0000 0.0000 -13.6615 -37.4125 -14.8466 2.6605 10.1241 29.3795 1.1832 -18.3635 -21.8097 2.9472 -10.6091 -30.9727 0.0000 0.0000 0.0000 29.8640 11.7143 5.1663 -1.2709 -7.1451 20.1460 -0.6757 -15.7087 -28.0066 -0.0678 1.6800 -4.6221 7.6096 8.8933 5.1257 -0.4764 12.4638 -3.8145 -5.6421 5.8632 -5.1446 8.5097 10.6205 -10.5473 -13.2846 12.8597 -7.5156 -4.7274 6.0930 0.9174 -0.0000 -0.0000 0.0000 -47.9022 39.2183 -2.3460 25.6339 -36.8449 -8.6672 -0.0000 -0.0000 2.1270 6.2045 -35.8990 -3.6474 -7.1250 0.0000 -0.0000 -14.5813 -5.0594 16.3278 -0.0000 -0.0000 0.0000 53.4963 34.6151 54.7652 -39.0246 47.4813 -17.7169 0.0000 0.0000 9.0700 -1.5174 -50.2765 1.1672 7.1250 -0.0000 -0.0000 -17.6544 13.3828 -166.2270
7.9503 15.2956 -36.8761 357.5290 -63.3554 5.0069 0.0000 0.0000 0.0000 -13.4357 -36.7572 -15.9108 2.6160 10.0459 29.1254 1.9970 -12.8670 -25.6132 6.1855 -14.6057 -45.7217 0.0000 0.0000 0.0000 29.7643 11.8417 4.4784 -1.2574 -7.1085 20.0373 -0.6807 -15.5129 -27.8310 -0.0089 0.6091 -1.6738 7.7912 8.8492 4.5249 -0.3913 12.3648 -3.8169 -5.5340 5.8285 -4.8053 8.3791 10.5513 -10.6546 -13.1017 12.7749 -7.5196 -4.6565 6.0524 0.9005 0.0000 0.0000 0.0000 -49.5124 40.0830 -2.4045 25.4624 -36.6729 -8.5646 -0.0000 -0.0000 2.4708 6.3040 -36.7529 -3.7819 -7.1250 0.0000 -0.0000 -14.5858 -5.8945 16.5266 0.0000 0.0000 0.0000 53.1119 34.2926 55.8677 -40.8601 48.5713 -19.0817 0.0000 0.0000 8.7189 -1.5205 -49.9718 1.1644 7.1250 -0.0000 -0.0000 -17.6708 13.6701 -166.3259
7.9935 15.3015 -36.9049 358.0200 -61.9908 4.6079 0.0000 0.0000 0.0000 -13.5851 -36.4183 -16.3815 2.5799 9.9818 28.9178 2.2325 -9.7357 -26.8499 7.0603 -15.3824 -49.1019 0.0000 0.0000 0.0000 29.7622 11.7706 4.3133 -1.2469 -7.0799 19.9524 -0.6432 -16.0508 -28.1437 -0.0000 -0.0190 0.0523 7.9238 8.6458 4.6094 -0.2966 12.1110 -3.7429 -5.5077 5.7002 -4.8047 8.2626 10.5617 -10.7338 -12.7027 12.7930 -7.5914 -4.5199 6.0660 0.8519 -0.0000 -0.0000 0.0000 -51.0934 41.0143 -2.3520 25.4139 -36.6240 -8.5356 -0.0000 -0.0000 2.6978 7.0748 -36.5808 -4.2301 -7.1250 0.0000 -0.0000 -14.1686 -5.8264 16.0089 -0.0000 -0.0000 0.0000 53.1275 34.0857 56.9272 -42.3354 49.3942 -20.1948 0.0000 0.0000 8.6616 -1.8248 -47.9013 1.3542 7.1250 -0.0000 -0.0000 -17.6647 15.5700 -167.0878
8.0398 15.3073 -36.9396 358.4720 -60.5142 4.3421 0.0000 0.0000 0.0000 -13.6865 -35.8396 -17.0483 2.5419 9.9136 28.6975 2.2124 -8.0114 -26.7491 6.7390 -15.1081 -47.8802 0.0000 0.0000 0.0000 29.7972 11.8828 4.0406 -1.2503 -7.0893 19.9801 -0.5763 -16.9847 -28.7077 -0.0112 -0.6831 1.8771 7.8023 8.4852 4.6840 -0.1071 11.9052 -3.7724 -5.2668 5.5939 -4.9708 8.0806 10.4277 -10.5585 -12.4348 12.6502 -7.6030 -4.4341 6.0097 0.7745 -0.0000 -0.0000 0.0000 -52.7539 41.7429 -2.4015 25.1582 -36.3653 -8.3835 -0.0000 -0.0000 3.1037 8.0646 -36.9788 -4.8715 -7.1250 0.0000 -0.0000 -13.6794 -6.3423 15.5338 -0.0000 -0.0000 0.0000 52.8116 33.5522 57.7672 -43.8628 50.1991 -21.3615 0.0000 0.0000 8.8071 0.2350 -47.5885 -0.1735 7.1250 -0.0000 -0.0000 -18.6582 16.2698 -166.5776
8.0814 15.3167 -36.9598 358.5520 -59.2047 4.2442 0.0000 0.0000 0.0000 -13.7985 -35.3542 -17.3928 2.5298 9.8919 28.6274 2.1489 -7.1685 -26.3922 5.5656 -13.9937 -43.2123 0.0000 0.0000 0.0000 29.9271 11.8065 3.9698 -1.2342 -7.0453 19.8495 -0.5473 -17.5437 -29.1438 -0.0437 -1.3489 3.7093 8.0658 8.3941 4.8729 0.0843 11.8288 -3.7688 -5.2385 5.5409 -5.0753 7.9148 10.2597 -10.4976 -12.2410 12.4522 -7.5922 -4.3704 5.9202 0.7240 -0.0000 -0.0000 0.0000 -54.4150 42.2141 -2.8801 24.6063 -35.7989 -8.0585 -0.0000 -0.0000 3.9323 8.8342 -38.6228 -5.5410 -7.1250 0.0000 -0.0000 -13.4271 -8.0396 15.5779 -0.0000 -0.0000 0.0000 52.3924 32.8090 58.6774 -45.4725 50.9979 -22.6054 0.0000 0.0000 8.5570 -0.7401 -50.4428 0.5706 7.1250 -0.0000 -0.0000 -17.9848 13.3755 -165.9378
8.1221 15.3287 -36.9803 358.6150 -57.8735 4.2102 0.0000 0.0000 0.0000 -13.8387 -34.7495 -17.8803 2.5354 9.9020 28.6600 2.1375 -6.4366 -26.3766 4.7605 -13.1089 -39.7776 0.0000 0.0000 0.0000 30.0075 11.5809 3.7473 -1.2189 -7.0030 19.7241 -0.5205 -18.0102 -29.4999 -0.0914 -1.9499 5.3674 8.3666 8.3016 4.9100 0.2065 11.7340 -3.7329 -5.2680 5.4858 -5.0409 8.2893 10.1307 -10.5693 -12.4946 12.2496 -7.4644 -4.5090 5.8069 0.7969 0.0000 -0.0000 0.0000 -56.0225 42.4205 -3.5893 23.9859 -35.1493 -7.6984 -0.0000 -0.0000 4.7661 8.8462 -38.4839 -5.5319 -7.1250 0.0000 -0.0000 -13.4075 -7.9070 15.5274 0.0000 -0.0000 0.0000 52.3733 32.1756 59.3030 -46.9069 51.6692 -23.7254 0.0000 0.0000 9.0924 -0.9024 -52.6839 0.7177 7.1250 -0.0000 -0.0000 -17.7829 11.2195 -165.2707
